<svg xmlns="http://www.w3.org/2000/svg" fill="none" viewBox="0 0 50 36">
  <mask id="kwWBpQwPta" maskUnits="userSpaceOnUse" x="0" y="0" width="50" height="36" fill="#000">
    <path fill="#fff" d="M0 0h50v36H0z"/>
    <path fill-rule="evenodd" clip-rule="evenodd" d="M40.03 1.051c-3.274.504-5.715 2.37-6.638 5.073-.173.508-.211.819-.211 1.733 0 1.222.154 1.856.696 2.858 1.074 1.99 3.436 3.534 5.952 3.89l.74.105.023 7.93.024 7.931h-.866c-1.14 0-1.544.11-2.09.566-.641.535-.763.945-.724 2.425l.03 1.16.31.231.31.232h7.48l.31-.232.31-.232.03-1.159c.036-1.34-.08-1.814-.565-2.305-.49-.497-1.09-.684-2.19-.685h-.925l.024-7.932.024-7.93.664-.097c3.421-.496 6.13-2.833 6.678-5.761.386-2.059-.482-4.285-2.258-5.797-1.061-.903-2.249-1.49-3.726-1.844-.778-.186-2.665-.274-3.411-.16zm2.91 1.278c4.227.907 6.362 4.74 4.454 7.994-.728 1.242-1.65 2.017-3.13 2.628a7.676 7.676 0 01-7.079-.6 5.82 5.82 0 01-2.31-2.744c-.524-1.308-.4-2.925.325-4.213 1.343-2.389 4.7-3.718 7.74-3.066zM1.233 4.591c-.28.234-.298.515-.052.77l.181.188 12.268.02c12.039.021 12.271.024 12.436.177.393.365.301.472-2.015 2.36-2.48 2.02-2.617 2.182-2.623 3.092-.006.88.253 1.234 1.87 2.556 3.245 2.654 6.405 4.052 10.399 4.602.267.037.451.164.948.655.746.738.81.811.891 1.031l.064.173-2.302.026c-2.204.025-2.322.034-2.763.217-.556.23-1.028.612-1.314 1.064-.172.272-.213.466-.214 1.013-.001.602.03.723.281 1.104.155.235.471.549.702.697.637.408 1.166.506 2.735.506h1.364l-.066.179c-.933 2.524-2.075 5.396-2.206 5.544-.432.494-.548.52-2.404.547l-1.712.025.064-.184c.392-1.135.453-2.527.153-3.533-.104-.346-.39-.97-.636-1.385-.379-.639-.588-.873-1.352-1.515-.737-.619-1.064-.829-1.762-1.13-1.212-.521-2.2-.724-3.502-.716-3.685.02-6.719 2.177-7.351 5.226-.147.708-.063 1.987.176 2.69l.183.537H1.465l-.232.195c-.28.235-.298.515-.052.77l.181.189 6.546.021 6.545.022.113.177c.196.31 1.34 1.258 1.917 1.588 1.328.76 2.47 1.047 4.183 1.05 1.448 0 2.286-.163 3.472-.681.866-.378 1.985-1.165 2.45-1.724l.333-.397 2.18-.028c2.034-.027 2.21-.04 2.653-.212.562-.216 1.13-.655 1.384-1.07.101-.164 1.017-2.473 2.036-5.131l1.852-4.833-.038-.637c-.027-.442-.103-.75-.25-1.006-.277-.488-6.755-6.84-7.096-6.96a.8.8 0 00-.465-.024c-.29.092-.536.433-.469.65.03.1.892.997 1.914 1.996 1.023 1 1.844 1.83 1.826 1.845-.018.015-.536-.11-1.15-.278-2.786-.764-5.086-2.035-7.522-4.158-1.315-1.145-1.314-1.388.003-2.51l.873-.743 1.088 1.058c.636.617 1.197 1.09 1.348 1.134.375.11.77-.148.81-.53.025-.255-.06-.367-.893-1.186a148.4 148.4 0 00-1.112-1.082l-.19-.18.821-.705c.452-.388.886-.834.965-.991.315-.634.113-1.42-.489-1.899-.614-.49.198-.462-13.254-.462H1.466l-.233.196zm38.066-.088c-.47.226-.477.285-.48 3.456l-.004 2.967.232.196c.28.234.614.25.918.043.214-.145.225-.204.254-1.301l.03-1.15 1.075-.044c1.56-.064 2.255-.366 2.743-1.19.61-1.026.102-2.316-1.13-2.872-.335-.151-.553-.173-1.895-.193-1.15-.016-1.571.005-1.743.088zm3.163 1.258c.568.375.628 1 .136 1.413-.314.264-.614.324-1.615.324h-.747V5.59h.983c.864 0 1.014.02 1.243.172zm-41.26 3.93c-.111.118-.202.263-.202.32 0 .18.208.499.368.564.084.034 1.966.084 4.181.11 4.008.048 4.033.05 4.928.263 1.827.436 3.676 1.366 4.904 2.468.62.557 2.178 2.349 2.329 2.68.14.308.003.733-.322.995l-.289.233-7.868.04-7.869.04-.18.187c-.231.239-.231.5 0 .738l.18.188 7.662.021c5.271.015 7.817-.006 8.16-.065 1.371-.239 2.275-1.504 1.884-2.634-.185-.534-1.725-2.4-2.692-3.26-1.56-1.387-3.743-2.418-6.152-2.904-.531-.107-1.378-.137-4.734-.165l-4.086-.035-.202.216zm7.164 11.094c-.33.218-.355.633-.05.871.19.149.329.163 1.662.163 1.42 0 1.462-.005 1.688-.196.28-.234.298-.515.052-.77-.174-.18-.239-.189-1.638-.213-1.369-.024-1.472-.015-1.714.145zm27.036.656c0 .01-.19.503-.421 1.094l-.42 1.074-1.574.021c-1.776.025-2.078-.037-2.416-.497-.435-.59-.13-1.353.659-1.647.13-.049 4.174-.093 4.172-.045zm-13.584 2.485c1.796.285 3.5 1.381 4.278 2.754.483.852.625 1.367.623 2.26-.005 1.95-1.29 3.663-3.431 4.569-.656.277-1.769.482-2.614.48-1.688-.002-2.99-.466-4.228-1.507-.92-.774-1.33-1.353-1.611-2.278-.536-1.759.045-3.563 1.564-4.852 1.465-1.243 3.387-1.749 5.42-1.427zm-1.816 2.238c-.788.165-1.09.364-1.09.719 0 .392.3.614.744.55 1.071-.153 1.474-.142 1.91.054 1.524.684 1.306 2.568-.345 2.97-1.1.269-2.055-.207-2.447-1.22-.089-.23-.24-.454-.337-.498-.286-.128-.648-.09-.863.09-.163.138-.192.237-.157.545.09.792.753 1.568 1.701 1.993.516.231.713.273 1.405.3.657.026.906 0 1.346-.139a3.276 3.276 0 001.803-1.419c.278-.475.31-.6.309-1.208-.002-.564-.045-.754-.254-1.131-.53-.958-1.633-1.583-2.867-1.624-.367-.012-.754-.004-.858.018zm23.841 5.681c.35.157.469.5.469 1.347v.8H38.34v-.882c0-.868.004-.885.277-1.114l.277-.233h2.383c1.453 0 2.454.032 2.565.082z"/>
  </mask>
  <path fill-rule="evenodd" clip-rule="evenodd" d="M40.03 1.051c-3.274.504-5.715 2.37-6.638 5.073-.173.508-.211.819-.211 1.733 0 1.222.154 1.856.696 2.858 1.074 1.99 3.436 3.534 5.952 3.89l.74.105.023 7.93.024 7.931h-.866c-1.14 0-1.544.11-2.09.566-.641.535-.763.945-.724 2.425l.03 1.16.31.231.31.232h7.48l.31-.232.31-.232.03-1.159c.036-1.34-.08-1.814-.565-2.305-.49-.497-1.09-.684-2.19-.685h-.925l.024-7.932.024-7.93.664-.097c3.421-.496 6.13-2.833 6.678-5.761.386-2.059-.482-4.285-2.258-5.797-1.061-.903-2.249-1.49-3.726-1.844-.778-.186-2.665-.274-3.411-.16zm2.91 1.278c4.227.907 6.362 4.74 4.454 7.994-.728 1.242-1.65 2.017-3.13 2.628a7.676 7.676 0 01-7.079-.6 5.82 5.82 0 01-2.31-2.744c-.524-1.308-.4-2.925.325-4.213 1.343-2.389 4.7-3.718 7.74-3.066zM1.233 4.591c-.28.234-.298.515-.052.77l.181.188 12.268.02c12.039.021 12.271.024 12.436.177.393.365.301.472-2.015 2.36-2.48 2.02-2.617 2.182-2.623 3.092-.006.88.253 1.234 1.87 2.556 3.245 2.654 6.405 4.052 10.399 4.602.267.037.451.164.948.655.746.738.81.811.891 1.031l.064.173-2.302.026c-2.204.025-2.322.034-2.763.217-.556.23-1.028.612-1.314 1.064-.172.272-.213.466-.214 1.013-.001.602.03.723.281 1.104.155.235.471.549.702.697.637.408 1.166.506 2.735.506h1.364l-.066.179c-.933 2.524-2.075 5.396-2.206 5.544-.432.494-.548.52-2.404.547l-1.712.025.064-.184c.392-1.135.453-2.527.153-3.533-.104-.346-.39-.97-.636-1.385-.379-.639-.588-.873-1.352-1.515-.737-.619-1.064-.829-1.762-1.13-1.212-.521-2.2-.724-3.502-.716-3.685.02-6.719 2.177-7.351 5.226-.147.708-.063 1.987.176 2.69l.183.537H1.465l-.232.195c-.28.235-.298.515-.052.77l.181.189 6.546.021 6.545.022.113.177c.196.31 1.34 1.258 1.917 1.588 1.328.76 2.47 1.047 4.183 1.05 1.448 0 2.286-.163 3.472-.681.866-.378 1.985-1.165 2.45-1.724l.333-.397 2.18-.028c2.034-.027 2.21-.04 2.653-.212.562-.216 1.13-.655 1.384-1.07.101-.164 1.017-2.473 2.036-5.131l1.852-4.833-.038-.637c-.027-.442-.103-.75-.25-1.006-.277-.488-6.755-6.84-7.096-6.96a.8.8 0 00-.465-.024c-.29.092-.536.433-.469.65.03.1.892.997 1.914 1.996 1.023 1 1.844 1.83 1.826 1.845-.018.015-.536-.11-1.15-.278-2.786-.764-5.086-2.035-7.522-4.158-1.315-1.145-1.314-1.388.003-2.51l.873-.743 1.088 1.058c.636.617 1.197 1.09 1.348 1.134.375.11.77-.148.81-.53.025-.255-.06-.367-.893-1.186a148.4 148.4 0 00-1.112-1.082l-.19-.18.821-.705c.452-.388.886-.834.965-.991.315-.634.113-1.42-.489-1.899-.614-.49.198-.462-13.254-.462H1.466l-.233.196zm38.066-.088c-.47.226-.477.285-.48 3.456l-.004 2.967.232.196c.28.234.614.25.918.043.214-.145.225-.204.254-1.301l.03-1.15 1.075-.044c1.56-.064 2.255-.366 2.743-1.19.61-1.026.102-2.316-1.13-2.872-.335-.151-.553-.173-1.895-.193-1.15-.016-1.571.005-1.743.088zm3.163 1.258c.568.375.628 1 .136 1.413-.314.264-.614.324-1.615.324h-.747V5.59h.983c.864 0 1.014.02 1.243.172zm-41.26 3.93c-.111.118-.202.263-.202.32 0 .18.208.499.368.564.084.034 1.966.084 4.181.11 4.008.048 4.033.05 4.928.263 1.827.436 3.676 1.366 4.904 2.468.62.557 2.178 2.349 2.329 2.68.14.308.003.733-.322.995l-.289.233-7.868.04-7.869.04-.18.187c-.231.239-.231.5 0 .738l.18.188 7.662.021c5.271.015 7.817-.006 8.16-.065 1.371-.239 2.275-1.504 1.884-2.634-.185-.534-1.725-2.4-2.692-3.26-1.56-1.387-3.743-2.418-6.152-2.904-.531-.107-1.378-.137-4.734-.165l-4.086-.035-.202.216zm7.164 11.094c-.33.218-.355.633-.05.871.19.149.329.163 1.662.163 1.42 0 1.462-.005 1.688-.196.28-.234.298-.515.052-.77-.174-.18-.239-.189-1.638-.213-1.369-.024-1.472-.015-1.714.145zm27.036.656c0 .01-.19.503-.421 1.094l-.42 1.074-1.574.021c-1.776.025-2.078-.037-2.416-.497-.435-.59-.13-1.353.659-1.647.13-.049 4.174-.093 4.172-.045zm-13.584 2.485c1.796.285 3.5 1.381 4.278 2.754.483.852.625 1.367.623 2.26-.005 1.95-1.29 3.663-3.431 4.569-.656.277-1.769.482-2.614.48-1.688-.002-2.99-.466-4.228-1.507-.92-.774-1.33-1.353-1.611-2.278-.536-1.759.045-3.563 1.564-4.852 1.465-1.243 3.387-1.749 5.42-1.427zm-1.816 2.238c-.788.165-1.09.364-1.09.719 0 .392.3.614.744.55 1.071-.153 1.474-.142 1.91.054 1.524.684 1.306 2.568-.345 2.97-1.1.269-2.055-.207-2.447-1.22-.089-.23-.24-.454-.337-.498-.286-.128-.648-.09-.863.09-.163.138-.192.237-.157.545.09.792.753 1.568 1.701 1.993.516.231.713.273 1.405.3.657.026.906 0 1.346-.139a3.276 3.276 0 001.803-1.419c.278-.475.31-.6.309-1.208-.002-.564-.045-.754-.254-1.131-.53-.958-1.633-1.583-2.867-1.624-.367-.012-.754-.004-.858.018zm23.841 5.681c.35.157.469.5.469 1.347v.8H38.34v-.882c0-.868.004-.885.277-1.114l.277-.233h2.383c1.453 0 2.454.032 2.565.082z" fill="#000"/>
  <path clip-rule="evenodd" d="M40.03 1.051c-3.274.504-5.715 2.37-6.638 5.073-.173.508-.211.819-.211 1.733 0 1.222.154 1.856.696 2.858 1.074 1.99 3.436 3.534 5.952 3.89l.74.105.023 7.93.024 7.931h-.866c-1.14 0-1.544.11-2.09.566-.641.535-.763.945-.724 2.425l.03 1.16.31.231.31.232h7.48l.31-.232.31-.232.03-1.159c.036-1.34-.08-1.814-.565-2.305-.49-.497-1.09-.684-2.19-.685h-.925l.024-7.932.024-7.93.664-.097c3.421-.496 6.13-2.833 6.678-5.761.386-2.059-.482-4.285-2.258-5.797-1.061-.903-2.249-1.49-3.726-1.844-.778-.186-2.665-.274-3.411-.16zm2.91 1.278c4.227.907 6.362 4.74 4.454 7.994-.728 1.242-1.65 2.017-3.13 2.628a7.676 7.676 0 01-7.079-.6 5.82 5.82 0 01-2.31-2.744c-.524-1.308-.4-2.925.325-4.213 1.343-2.389 4.7-3.718 7.74-3.066zM1.233 4.591c-.28.234-.298.515-.052.77l.181.188 12.268.02c12.039.021 12.271.024 12.436.177.393.365.301.472-2.015 2.36-2.48 2.02-2.617 2.182-2.623 3.092-.006.88.253 1.234 1.87 2.556 3.245 2.654 6.405 4.052 10.399 4.602.267.037.451.164.948.655.746.738.81.811.891 1.031l.064.173-2.302.026c-2.204.025-2.322.034-2.763.217-.556.23-1.028.612-1.314 1.064-.172.272-.213.466-.214 1.013-.001.602.03.723.281 1.104.155.235.471.549.702.697.637.408 1.166.506 2.735.506h1.364l-.066.179c-.933 2.524-2.075 5.396-2.206 5.544-.432.494-.548.52-2.404.547l-1.712.025.064-.184c.392-1.135.453-2.527.153-3.533-.104-.346-.39-.97-.636-1.385-.379-.639-.588-.873-1.352-1.515-.737-.619-1.064-.829-1.762-1.13-1.212-.521-2.2-.724-3.502-.716-3.685.02-6.719 2.177-7.351 5.226-.147.708-.063 1.987.176 2.69l.183.537H1.465l-.232.195c-.28.235-.298.515-.052.77l.181.189 6.546.021 6.545.022.113.177c.196.31 1.34 1.258 1.917 1.588 1.328.76 2.47 1.047 4.183 1.05 1.448 0 2.286-.163 3.472-.681.866-.378 1.985-1.165 2.45-1.724l.333-.397 2.18-.028c2.034-.027 2.21-.04 2.653-.212.562-.216 1.13-.655 1.384-1.07.101-.164 1.017-2.473 2.036-5.131l1.852-4.833-.038-.637c-.027-.442-.103-.75-.25-1.006-.277-.488-6.755-6.84-7.096-6.96a.8.8 0 00-.465-.024c-.29.092-.536.433-.469.65.03.1.892.997 1.914 1.996 1.023 1 1.844 1.83 1.826 1.845-.018.015-.536-.11-1.15-.278-2.786-.764-5.086-2.035-7.522-4.158-1.315-1.145-1.314-1.388.003-2.51l.873-.743 1.088 1.058c.636.617 1.197 1.09 1.348 1.134.375.11.77-.148.81-.53.025-.255-.06-.367-.893-1.186a148.4 148.4 0 00-1.112-1.082l-.19-.18.821-.705c.452-.388.886-.834.965-.991.315-.634.113-1.42-.489-1.899-.614-.49.198-.462-13.254-.462H1.466l-.233.196zm38.066-.088c-.47.226-.477.285-.48 3.456l-.004 2.967.232.196c.28.234.614.25.918.043.214-.145.225-.204.254-1.301l.03-1.15 1.075-.044c1.56-.064 2.255-.366 2.743-1.19.61-1.026.102-2.316-1.13-2.872-.335-.151-.553-.173-1.895-.193-1.15-.016-1.571.005-1.743.088zm3.163 1.258c.568.375.628 1 .136 1.413-.314.264-.614.324-1.615.324h-.747V5.59h.983c.864 0 1.014.02 1.243.172zm-41.26 3.93c-.111.118-.202.263-.202.32 0 .18.208.499.368.564.084.034 1.966.084 4.181.11 4.008.048 4.033.05 4.928.263 1.827.436 3.676 1.366 4.904 2.468.62.557 2.178 2.349 2.329 2.68.14.308.003.733-.322.995l-.289.233-7.868.04-7.869.04-.18.187c-.231.239-.231.5 0 .738l.18.188 7.662.021c5.271.015 7.817-.006 8.16-.065 1.371-.239 2.275-1.504 1.884-2.634-.185-.534-1.725-2.4-2.692-3.26-1.56-1.387-3.743-2.418-6.152-2.904-.531-.107-1.378-.137-4.734-.165l-4.086-.035-.202.216zm7.164 11.094c-.33.218-.355.633-.05.871.19.149.329.163 1.662.163 1.42 0 1.462-.005 1.688-.196.28-.234.298-.515.052-.77-.174-.18-.239-.189-1.638-.213-1.369-.024-1.472-.015-1.714.145zm27.036.656c0 .01-.19.503-.421 1.094l-.42 1.074-1.574.021c-1.776.025-2.078-.037-2.416-.497-.435-.59-.13-1.353.659-1.647.13-.049 4.174-.093 4.172-.045zm-13.584 2.485c1.796.285 3.5 1.381 4.278 2.754.483.852.625 1.367.623 2.26-.005 1.95-1.29 3.663-3.431 4.569-.656.277-1.769.482-2.614.48-1.688-.002-2.99-.466-4.228-1.507-.92-.774-1.33-1.353-1.611-2.278-.536-1.759.045-3.563 1.564-4.852 1.465-1.243 3.387-1.749 5.42-1.427zm-1.816 2.238c-.788.165-1.09.364-1.09.719 0 .392.3.614.744.55 1.071-.153 1.474-.142 1.91.054 1.524.684 1.306 2.568-.345 2.97-1.1.269-2.055-.207-2.447-1.22-.089-.23-.24-.454-.337-.498-.286-.128-.648-.09-.863.09-.163.138-.192.237-.157.545.09.792.753 1.568 1.701 1.993.516.231.713.273 1.405.3.657.026.906 0 1.346-.139a3.276 3.276 0 001.803-1.419c.278-.475.31-.6.309-1.208-.002-.564-.045-.754-.254-1.131-.53-.958-1.633-1.583-2.867-1.624-.367-.012-.754-.004-.858.018zm23.841 5.681c.35.157.469.5.469 1.347v.8H38.34v-.882c0-.868.004-.885.277-1.114l.277-.233h2.383c1.453 0 2.454.032 2.565.082z" stroke="#000" stroke-width=".64" mask="url(#kwWBpQwPta)"/>
</svg>
