<svg xmlns="http://www.w3.org/2000/svg" fill="none" viewBox="0 0 46 39">
  <mask id="iQqd92SWja" maskUnits="userSpaceOnUse" x="0" y="0" width="46" height="39" fill="#000">
    <path fill="#fff" d="M0 0h46v39H0z"/>
    <path fill-rule="evenodd" clip-rule="evenodd" d="M36.462 1.056c-2.976.545-5.193 2.563-6.032 5.49-.157.55-.192.886-.192 1.876 0 1.322.14 2.008.633 3.093.976 2.154 3.122 3.824 5.408 4.21l.671.114.022 8.583.022 8.584h-.787c-1.036 0-1.403.118-1.9.612-.581.58-.692 1.023-.657 2.625l.028 1.255.281.251.282.251h6.797l.28-.251.282-.251.028-1.255c.032-1.45-.074-1.963-.514-2.495-.445-.538-.99-.74-1.99-.741l-.84-.001.022-8.584.022-8.583.603-.105c3.108-.537 5.569-3.066 6.067-6.236.35-2.228-.437-4.637-2.051-6.274-.964-.977-2.043-1.613-3.385-1.996-.707-.201-2.422-.297-3.1-.172zm2.644 1.382c3.84.982 5.78 5.131 4.046 8.653-.661 1.344-1.5 2.183-2.843 2.844-2.128 1.047-4.502.807-6.432-.65-.96-.725-1.691-1.759-2.099-2.969-.476-1.416-.363-3.166.295-4.56 1.22-2.586 4.27-4.025 7.033-3.318zM1.21 4.888c-.253.253-.27.557-.046.833l.164.204 11.146.022c10.938.022 11.15.026 11.299.191.357.395.274.51-1.83 2.553-2.253 2.187-2.379 2.363-2.384 3.347-.006.953.23 1.336 1.699 2.767 2.949 2.872 5.82 4.386 9.448 4.981.243.04.41.177.861.709.678.798.736.878.81 1.116l.059.187-2.092.028c-2.002.027-2.11.037-2.51.235a2.737 2.737 0 00-1.195 1.152c-.156.294-.193.504-.194 1.096 0 .652.027.782.256 1.195.14.255.427.594.637.754.579.442 1.06.548 2.486.548h1.239l-.06.194c-.848 2.732-1.886 5.84-2.004 6-.393.535-.498.563-2.185.593l-1.555.027.057-.2c.357-1.229.412-2.734.14-3.823-.094-.375-.354-1.05-.578-1.5-.344-.69-.534-.945-1.229-1.64-.669-.67-.966-.896-1.6-1.222-1.101-.565-1.999-.784-3.183-.776-3.347.022-6.104 2.357-6.678 5.657-.134.766-.058 2.15.16 2.911l.166.581H1.423l-.212.212c-.253.253-.27.557-.046.834l.164.203 5.947.023 5.947.023.102.193c.178.335 1.218 1.36 1.742 1.718 1.207.824 2.244 1.134 3.8 1.136 1.317.002 2.078-.176 3.155-.736.787-.41 1.804-1.261 2.227-1.866l.302-.43 1.98-.03c1.848-.03 2.01-.044 2.411-.23.51-.234 1.026-.709 1.258-1.157.091-.178.924-2.677 1.85-5.554l1.682-5.231-.035-.69c-.024-.477-.093-.81-.226-1.089-.252-.527-6.138-7.403-6.448-7.532a.616.616 0 00-.422-.026c-.264.1-.487.468-.426.704.027.107.81 1.079 1.739 2.16.929 1.081 1.675 1.98 1.659 1.996-.017.017-.487-.119-1.046-.3-2.53-.827-4.62-2.203-6.834-4.5-1.194-1.24-1.194-1.503.004-2.718l.792-.804.99 1.145c.576.668 1.087 1.18 1.224 1.228.34.12.7-.16.735-.574.024-.276-.053-.397-.81-1.283-.461-.538-.916-1.065-1.011-1.172l-.173-.194.747-.763c.41-.42.805-.903.876-1.074.287-.686.103-1.535-.444-2.054-.559-.53.18-.5-12.043-.5H1.424l-.212.211zm34.586-.096c-.426.245-.433.308-.437 3.741l-.003 3.212.212.211c.253.254.557.27.834.047.194-.157.204-.221.23-1.408l.028-1.244.977-.048c1.416-.07 2.047-.396 2.492-1.288.553-1.11.092-2.507-1.027-3.109-.305-.164-.503-.188-1.722-.208-1.044-.018-1.428.005-1.584.094zm2.874 1.362c.516.406.57 1.082.124 1.53-.286.285-.559.35-1.468.35h-.678V5.968h.892c.786 0 .922.022 1.13.186zM1.184 10.408c-.101.128-.184.284-.184.346 0 .195.19.54.335.61.076.038 1.785.091 3.798.12 3.641.052 3.664.053 4.478.284 1.66.472 3.34 1.479 4.455 2.671.564.603 1.979 2.542 2.116 2.9.128.334.003.795-.292 1.078l-.263.252-7.149.043-7.149.043-.164.203c-.21.259-.21.54 0 .799l.164.203 6.961.023c4.79.016 7.103-.006 7.415-.07 1.245-.259 2.066-1.628 1.71-2.851-.167-.579-1.566-2.597-2.445-3.528-1.417-1.502-3.4-2.618-5.59-3.144-.482-.116-1.251-.148-4.3-.178l-3.713-.038-.183.234zm6.508 12.007a.623.623 0 00-.045.943c.172.161.299.176 1.51.176 1.29 0 1.328-.006 1.534-.212.254-.253.27-.557.047-.834-.158-.195-.217-.204-1.488-.23-1.244-.026-1.337-.016-1.558.157zm24.565.71c0 .012-.173.544-.383 1.184l-.382 1.162-1.43.024c-1.613.026-1.887-.04-2.195-.538-.395-.64-.118-1.466.599-1.783.119-.053 3.792-.1 3.79-.05zm-12.342 2.69c1.632.308 3.18 1.495 3.887 2.98.438.922.567 1.48.565 2.445-.004 2.113-1.172 3.966-3.117 4.947-.596.3-1.607.522-2.375.52-1.533-.003-2.717-.506-3.84-1.632-.837-.837-1.21-1.465-1.465-2.465a5.463 5.463 0 011.421-5.252c1.33-1.345 3.078-1.893 4.924-1.544zm-1.65 2.421c-.717.179-.99.394-.99.779 0 .424.272.664.675.596.974-.166 1.34-.154 1.736.058 1.385.74 1.186 2.779-.314 3.215-1 .29-1.867-.225-2.223-1.322-.081-.248-.219-.49-.307-.538-.259-.138-.588-.098-.783.097-.149.15-.175.257-.143.59.082.857.684 1.697 1.546 2.157.468.25.647.296 1.276.326.597.027.823 0 1.223-.151.68-.256 1.29-.829 1.638-1.536.253-.514.282-.65.28-1.308-.001-.61-.04-.816-.23-1.224a3.01 3.01 0 00-2.605-1.757c-.334-.014-.684-.005-.78.018zm21.66 6.15c.318.17.427.54.427 1.457v.865h-5.425v-.953c0-.94.004-.958.251-1.206l.252-.252h2.165c1.32 0 2.23.035 2.33.089z"/>
  </mask>
  <path fill-rule="evenodd" clip-rule="evenodd" d="M36.462 1.056c-2.976.545-5.193 2.563-6.032 5.49-.157.55-.192.886-.192 1.876 0 1.322.14 2.008.633 3.093.976 2.154 3.122 3.824 5.408 4.21l.671.114.022 8.583.022 8.584h-.787c-1.036 0-1.403.118-1.9.612-.581.58-.692 1.023-.657 2.625l.028 1.255.281.251.282.251h6.797l.28-.251.282-.251.028-1.255c.032-1.45-.074-1.963-.514-2.495-.445-.538-.99-.74-1.99-.741l-.84-.001.022-8.584.022-8.583.603-.105c3.108-.537 5.569-3.066 6.067-6.236.35-2.228-.437-4.637-2.051-6.274-.964-.977-2.043-1.613-3.385-1.996-.707-.201-2.422-.297-3.1-.172zm2.644 1.382c3.84.982 5.78 5.131 4.046 8.653-.661 1.344-1.5 2.183-2.843 2.844-2.128 1.047-4.502.807-6.432-.65-.96-.725-1.691-1.759-2.099-2.969-.476-1.416-.363-3.166.295-4.56 1.22-2.586 4.27-4.025 7.033-3.318zM1.21 4.888c-.253.253-.27.557-.046.833l.164.204 11.146.022c10.938.022 11.15.026 11.299.191.357.395.274.51-1.83 2.553-2.253 2.187-2.379 2.363-2.384 3.347-.006.953.23 1.336 1.699 2.767 2.949 2.872 5.82 4.386 9.448 4.981.243.04.41.177.861.709.678.798.736.878.81 1.116l.059.187-2.092.028c-2.002.027-2.11.037-2.51.235a2.737 2.737 0 00-1.195 1.152c-.156.294-.193.504-.194 1.096 0 .652.027.782.256 1.195.14.255.427.594.637.754.579.442 1.06.548 2.486.548h1.239l-.06.194c-.848 2.732-1.886 5.84-2.004 6-.393.535-.498.563-2.185.593l-1.555.027.057-.2c.357-1.229.412-2.734.14-3.823-.094-.375-.354-1.05-.578-1.5-.344-.69-.534-.945-1.229-1.64-.669-.67-.966-.896-1.6-1.222-1.101-.565-1.999-.784-3.183-.776-3.347.022-6.104 2.357-6.678 5.657-.134.766-.058 2.15.16 2.911l.166.581H1.423l-.212.212c-.253.253-.27.557-.046.834l.164.203 5.947.023 5.947.023.102.193c.178.335 1.218 1.36 1.742 1.718 1.207.824 2.244 1.134 3.8 1.136 1.317.002 2.078-.176 3.155-.736.787-.41 1.804-1.261 2.227-1.866l.302-.43 1.98-.03c1.848-.03 2.01-.044 2.411-.23.51-.234 1.026-.709 1.258-1.157.091-.178.924-2.677 1.85-5.554l1.682-5.231-.035-.69c-.024-.477-.093-.81-.226-1.089-.252-.527-6.138-7.403-6.448-7.532a.616.616 0 00-.422-.026c-.264.1-.487.468-.426.704.027.107.81 1.079 1.739 2.16.929 1.081 1.675 1.98 1.659 1.996-.017.017-.487-.119-1.046-.3-2.53-.827-4.62-2.203-6.834-4.5-1.194-1.24-1.194-1.503.004-2.718l.792-.804.99 1.145c.576.668 1.087 1.18 1.224 1.228.34.12.7-.16.735-.574.024-.276-.053-.397-.81-1.283-.461-.538-.916-1.065-1.011-1.172l-.173-.194.747-.763c.41-.42.805-.903.876-1.074.287-.686.103-1.535-.444-2.054-.559-.53.18-.5-12.043-.5H1.424l-.212.211zm34.586-.096c-.426.245-.433.308-.437 3.741l-.003 3.212.212.211c.253.254.557.27.834.047.194-.157.204-.221.23-1.408l.028-1.244.977-.048c1.416-.07 2.047-.396 2.492-1.288.553-1.11.092-2.507-1.027-3.109-.305-.164-.503-.188-1.722-.208-1.044-.018-1.428.005-1.584.094zm2.874 1.362c.516.406.57 1.082.124 1.53-.286.285-.559.35-1.468.35h-.678V5.968h.892c.786 0 .922.022 1.13.186zM1.184 10.408c-.101.128-.184.284-.184.346 0 .195.19.54.335.61.076.038 1.785.091 3.798.12 3.641.052 3.664.053 4.478.284 1.66.472 3.34 1.479 4.455 2.671.564.603 1.979 2.542 2.116 2.9.128.334.003.795-.292 1.078l-.263.252-7.149.043-7.149.043-.164.203c-.21.259-.21.54 0 .799l.164.203 6.961.023c4.79.016 7.103-.006 7.415-.07 1.245-.259 2.066-1.628 1.71-2.851-.167-.579-1.566-2.597-2.445-3.528-1.417-1.502-3.4-2.618-5.59-3.144-.482-.116-1.251-.148-4.3-.178l-3.713-.038-.183.234zm6.508 12.007a.623.623 0 00-.045.943c.172.161.299.176 1.51.176 1.29 0 1.328-.006 1.534-.212.254-.253.27-.557.047-.834-.158-.195-.217-.204-1.488-.23-1.244-.026-1.337-.016-1.558.157zm24.565.71c0 .012-.173.544-.383 1.184l-.382 1.162-1.43.024c-1.613.026-1.887-.04-2.195-.538-.395-.64-.118-1.466.599-1.783.119-.053 3.792-.1 3.79-.05zm-12.342 2.69c1.632.308 3.18 1.495 3.887 2.98.438.922.567 1.48.565 2.445-.004 2.113-1.172 3.966-3.117 4.947-.596.3-1.607.522-2.375.52-1.533-.003-2.717-.506-3.84-1.632-.837-.837-1.21-1.465-1.465-2.465a5.463 5.463 0 011.421-5.252c1.33-1.345 3.078-1.893 4.924-1.544zm-1.65 2.421c-.717.179-.99.394-.99.779 0 .424.272.664.675.596.974-.166 1.34-.154 1.736.058 1.385.74 1.186 2.779-.314 3.215-1 .29-1.867-.225-2.223-1.322-.081-.248-.219-.49-.307-.538-.259-.138-.588-.098-.783.097-.149.15-.175.257-.143.59.082.857.684 1.697 1.546 2.157.468.25.647.296 1.276.326.597.027.823 0 1.223-.151.68-.256 1.29-.829 1.638-1.536.253-.514.282-.65.28-1.308-.001-.61-.04-.816-.23-1.224a3.01 3.01 0 00-2.605-1.757c-.334-.014-.684-.005-.78.018zm21.66 6.15c.318.17.427.54.427 1.457v.865h-5.425v-.953c0-.94.004-.958.251-1.206l.252-.252h2.165c1.32 0 2.23.035 2.33.089z" fill="#000"/>
  <path clip-rule="evenodd" d="M36.462 1.056c-2.976.545-5.193 2.563-6.032 5.49-.157.55-.192.886-.192 1.876 0 1.322.14 2.008.633 3.093.976 2.154 3.122 3.824 5.408 4.21l.671.114.022 8.583.022 8.584h-.787c-1.036 0-1.403.118-1.9.612-.581.58-.692 1.023-.657 2.625l.028 1.255.281.251.282.251h6.797l.28-.251.282-.251.028-1.255c.032-1.45-.074-1.963-.514-2.495-.445-.538-.99-.74-1.99-.741l-.84-.001.022-8.584.022-8.583.603-.105c3.108-.537 5.569-3.066 6.067-6.236.35-2.228-.437-4.637-2.051-6.274-.964-.977-2.043-1.613-3.385-1.996-.707-.201-2.422-.297-3.1-.172zm2.644 1.382c3.84.982 5.78 5.131 4.046 8.653-.661 1.344-1.5 2.183-2.843 2.844-2.128 1.047-4.502.807-6.432-.65-.96-.725-1.691-1.759-2.099-2.969-.476-1.416-.363-3.166.295-4.56 1.22-2.586 4.27-4.025 7.033-3.318zM1.21 4.888c-.253.253-.27.557-.046.833l.164.204 11.146.022c10.938.022 11.15.026 11.299.191.357.395.274.51-1.83 2.553-2.253 2.187-2.379 2.363-2.384 3.347-.006.953.23 1.336 1.699 2.767 2.949 2.872 5.82 4.386 9.448 4.981.243.04.41.177.861.709.678.798.736.878.81 1.116l.059.187-2.092.028c-2.002.027-2.11.037-2.51.235a2.737 2.737 0 00-1.195 1.152c-.156.294-.193.504-.194 1.096 0 .652.027.782.256 1.195.14.255.427.594.637.754.579.442 1.06.548 2.486.548h1.239l-.06.194c-.848 2.732-1.886 5.84-2.004 6-.393.535-.498.563-2.185.593l-1.555.027.057-.2c.357-1.229.412-2.734.14-3.823-.094-.375-.354-1.05-.578-1.5-.344-.69-.534-.945-1.229-1.64-.669-.67-.966-.896-1.6-1.222-1.101-.565-1.999-.784-3.183-.776-3.347.022-6.104 2.357-6.678 5.657-.134.766-.058 2.15.16 2.911l.166.581H1.423l-.212.212c-.253.253-.27.557-.046.834l.164.203 5.947.023 5.947.023.102.193c.178.335 1.218 1.36 1.742 1.718 1.207.824 2.244 1.134 3.8 1.136 1.317.002 2.078-.176 3.155-.736.787-.41 1.804-1.261 2.227-1.866l.302-.43 1.98-.03c1.848-.03 2.01-.044 2.411-.23.51-.234 1.026-.709 1.258-1.157.091-.178.924-2.677 1.85-5.554l1.682-5.231-.035-.69c-.024-.477-.093-.81-.226-1.089-.252-.527-6.138-7.403-6.448-7.532a.616.616 0 00-.422-.026c-.264.1-.487.468-.426.704.027.107.81 1.079 1.739 2.16.929 1.081 1.675 1.98 1.659 1.996-.017.017-.487-.119-1.046-.3-2.53-.827-4.62-2.203-6.834-4.5-1.194-1.24-1.194-1.503.004-2.718l.792-.804.99 1.145c.576.668 1.087 1.18 1.224 1.228.34.12.7-.16.735-.574.024-.276-.053-.397-.81-1.283-.461-.538-.916-1.065-1.011-1.172l-.173-.194.747-.763c.41-.42.805-.903.876-1.074.287-.686.103-1.535-.444-2.054-.559-.53.18-.5-12.043-.5H1.424l-.212.211zm34.586-.096c-.426.245-.433.308-.437 3.741l-.003 3.212.212.211c.253.254.557.27.834.047.194-.157.204-.221.23-1.408l.028-1.244.977-.048c1.416-.07 2.047-.396 2.492-1.288.553-1.11.092-2.507-1.027-3.109-.305-.164-.503-.188-1.722-.208-1.044-.018-1.428.005-1.584.094zm2.874 1.362c.516.406.57 1.082.124 1.53-.286.285-.559.35-1.468.35h-.678V5.968h.892c.786 0 .922.022 1.13.186zM1.184 10.408c-.101.128-.184.284-.184.346 0 .195.19.54.335.61.076.038 1.785.091 3.798.12 3.641.052 3.664.053 4.478.284 1.66.472 3.34 1.479 4.455 2.671.564.603 1.979 2.542 2.116 2.9.128.334.003.795-.292 1.078l-.263.252-7.149.043-7.149.043-.164.203c-.21.259-.21.54 0 .799l.164.203 6.961.023c4.79.016 7.103-.006 7.415-.07 1.245-.259 2.066-1.628 1.71-2.851-.167-.579-1.566-2.597-2.445-3.528-1.417-1.502-3.4-2.618-5.59-3.144-.482-.116-1.251-.148-4.3-.178l-3.713-.038-.183.234zm6.508 12.007a.623.623 0 00-.045.943c.172.161.299.176 1.51.176 1.29 0 1.328-.006 1.534-.212.254-.253.27-.557.047-.834-.158-.195-.217-.204-1.488-.23-1.244-.026-1.337-.016-1.558.157zm24.565.71c0 .012-.173.544-.383 1.184l-.382 1.162-1.43.024c-1.613.026-1.887-.04-2.195-.538-.395-.64-.118-1.466.599-1.783.119-.053 3.792-.1 3.79-.05zm-12.342 2.69c1.632.308 3.18 1.495 3.887 2.98.438.922.567 1.48.565 2.445-.004 2.113-1.172 3.966-3.117 4.947-.596.3-1.607.522-2.375.52-1.533-.003-2.717-.506-3.84-1.632-.837-.837-1.21-1.465-1.465-2.465a5.463 5.463 0 011.421-5.252c1.33-1.345 3.078-1.893 4.924-1.544zm-1.65 2.421c-.717.179-.99.394-.99.779 0 .424.272.664.675.596.974-.166 1.34-.154 1.736.058 1.385.74 1.186 2.779-.314 3.215-1 .29-1.867-.225-2.223-1.322-.081-.248-.219-.49-.307-.538-.259-.138-.588-.098-.783.097-.149.15-.175.257-.143.59.082.857.684 1.697 1.546 2.157.468.25.647.296 1.276.326.597.027.823 0 1.223-.151.68-.256 1.29-.829 1.638-1.536.253-.514.282-.65.28-1.308-.001-.61-.04-.816-.23-1.224a3.01 3.01 0 00-2.605-1.757c-.334-.014-.684-.005-.78.018zm21.66 6.15c.318.17.427.54.427 1.457v.865h-5.425v-.953c0-.94.004-.958.251-1.206l.252-.252h2.165c1.32 0 2.23.035 2.33.089z" stroke="#000" stroke-width=".691" mask="url(#iQqd92SWja)"/>
</svg>
