<svg xmlns="http://www.w3.org/2000/svg" fill="none" viewBox="0 0 52 50">
  <mask id="ZfD5i6yW6Ufa" maskUnits="userSpaceOnUse" x="0" y="0" width="52" height="50" fill="#000">
    <path fill="#fff" d="M0 0h52v50H0z"/>
    <path fill-rule="evenodd" clip-rule="evenodd" d="M8.815 9.284l-3.818 6.28c-2.1 3.453-3.87 6.378-3.933 6.501-.08.156-.085.28-.013.413.135.254 3.154 2.087 3.436 2.087.27 0 .302-.045 2.457-3.564.918-1.498 1.718-2.78 1.78-2.848.084-.094.18.53.383 2.525.15 1.457.27 2.768.268 2.913-.002.145-.36 1.274-.795 2.509-.436 1.234-.792 2.343-.792 2.464 0 .448.063.457 3.379.457h3.141l.18-.23c.1-.127.27-.394.377-.595.108-.2.231-.353.274-.339.042.014.224.27.404.57l.327.544 6.367.052.162-.246c.155-.238.131-.329-.695-2.613l-.855-2.366.295-2.845c.163-1.564.31-2.86.328-2.877.017-.018.9 1.376 1.961 3.097s1.989 3.188 2.06 3.26a.513.513 0 00.316.132c.102 0 .912-.437 1.8-.97 1.318-.793 1.62-1.016 1.644-1.215.021-.176-1.06-2.034-3.886-6.678l-3.914-6.434-3.795-1.832-5.068.01-3.775 1.838zm23.813-.934c-.89 1.746-1.24 4.508-.838 6.635.2 1.063.8 2.83 1.046 3.083.13.134.255.168.443.12.455-.114.455-.378-.005-1.784-.777-2.377-.81-4.396-.108-6.493l.316-.94 2.623-.056.007 1.81c.004.996.038 1.883.075 1.971.126.303 2.74 3.057 2.956 3.116.118.032.28.02.36-.025.08-.046.762-.748 1.517-1.561l1.373-1.478.061-3.827h1.27c.896 0 1.297.036 1.366.124.162.204.53 1.362.678 2.137.161.839.184 2.813.043 3.592-.054.293-.462 1.635-.907 2.981l-.81 2.448-5.091.028c-4.91.026-5.097.034-5.232.22-.11.15-.14.61-.14 2.116v1.925l-.627 1.002c-1.345 2.15-2.137 3.704-3.036 5.953-1.64 4.103-2.55 8.81-2.46 12.732.032 1.408.04 1.454.32 1.859 2.252 3.246 15.693 4.05 21.332 1.276.772-.38 1.54-1.056 1.817-1.598.188-.367.207-.557.19-1.893-.051-4.092-.896-8.32-2.454-12.277-.62-1.574-1.926-4.276-2.22-4.592-.233-.25-.511-.27-.727-.055-.248.248-.184.525.349 1.528 2.481 4.663 3.93 10.263 3.986 15.403.014 1.362.01 1.4-.246 1.735-.306.404-.926.759-2.04 1.17-.729.268-.812.28-.857.128-.027-.093-.477-2.396-1.001-5.12-.524-2.722-.998-5.095-1.053-5.272-.184-.586-.897-.552-.957.046-.017.164.418 2.606.965 5.427.548 2.822.996 5.182.996 5.247 0 .208-2.518.58-4.728.699l-1.312.07v-5.79c0-5.485-.01-5.8-.181-5.956-.238-.214-.54-.207-.744.018-.149.164-.164.72-.164 5.955v5.774l-1.246-.07c-2.325-.128-4.794-.49-4.794-.702 0-.065.448-2.424.996-5.242.547-2.817.982-5.259.965-5.425-.06-.602-.773-.64-.957-.05-.055.176-.528 2.549-1.05 5.272-.523 2.723-.983 5.025-1.022 5.116-.063.148-.16.131-.948-.166-1.147-.435-1.862-.913-2.094-1.4-.169-.357-.173-.511-.066-2.362.363-6.249 2.048-11.615 5.255-16.733l.558-.891 5.18-.05c4.983-.047 5.185-.057 5.32-.241.11-.151.14-.623.14-2.202v-2.009l.843-2.533c.463-1.393.909-2.914.99-3.381.183-1.051.185-2.703.004-3.718-.16-.903-.666-2.464-.944-2.921l-.196-.322h-2.061c-1.471 0-2.095.034-2.18.119-.085.084-.12.72-.123 2.203l-.005 2.084-2.073 2.178-2.069-2.178-.003-2.084c-.003-1.485-.039-2.119-.123-2.203-.085-.085-.708-.12-2.176-.12h-2.058l-.214.42zm-14.532.477c.634.32.785.436.734.57-.423 1.107-3.67 8.223-3.726 8.166-.054-.056-3.243-7.1-3.718-8.213-.03-.07.284-.276.775-.512l.825-.395 4.311-.017.799.401zm-5.555 5.71c1.161 2.602 2.154 4.787 2.206 4.855.16.21.644.148.808-.102.081-.124 1.069-2.296 2.194-4.827 1.125-2.53 2.079-4.638 2.12-4.684.04-.045.246.007.457.115.347.178.724.758 4.034 6.2 2.008 3.302 3.634 6.018 3.614 6.035-.168.138-1.98 1.168-2.002 1.138-.016-.021-1-1.62-2.188-3.553-1.187-1.934-2.227-3.593-2.31-3.689-.206-.234-.68-.225-.81.016-.056.104-.28 1.924-.5 4.044l-.398 3.854.694 1.917c.382 1.054.694 1.975.694 2.046 0 .102-.478.129-2.305.129h-2.305l-.521-.881c-.768-1.298-.995-1.293-1.8.039l-.508.842h-2.32c-1.276 0-2.32-.03-2.32-.067 0-.036.312-.951.693-2.033.396-1.126.691-2.125.69-2.335-.011-1.008-.76-7.442-.885-7.592-.084-.1-.248-.15-.433-.132-.278.027-.453.28-2.546 3.672-1.235 2.003-2.27 3.667-2.301 3.697-.082.082-1.952-1.059-1.948-1.188.002-.062 1.62-2.763 3.596-6.003 3.187-5.227 3.635-5.916 3.977-6.108.212-.119.413-.198.448-.177.035.022 1.014 2.168 2.175 4.771zm36.411 5.778c-.134.079-.173.234-.173.69v.59h-.544c-.413 0-.593.048-.743.198-.445.444-.075.89.738.89h.54l.03.61c.033.706.189.88.642.722.26-.09.28-.139.307-.714l.03-.617h.496c.68 0 .88-.124.88-.545 0-.42-.2-.544-.884-.544h-.502v-.538c0-.74-.32-1.031-.817-.741zm-34.328.468c-.354.354-.384.68-.096 1.046.159.202.292.26.59.26.981 0 1.09-1.359.124-1.545-.266-.052-.367-.012-.618.24zm29.303 3.386H34.72v-2.871h9.209v2.871zm-29.172-.28c-.457.221-.556.859-.19 1.225.508.507 1.342.174 1.342-.535 0-.602-.597-.96-1.152-.69zm-.033 6.115c-.14.262-1.93 17.635-1.85 17.955.135.537.798.462.95-.107.054-.201.347-2.838.65-5.86.305-3.023.585-5.672.625-5.887.051-.279.251 1.35.7 5.694.344 3.346.666 6.159.715 6.25.18.342.695.328.883-.023.135-.252-1.657-17.678-1.85-17.99-.177-.287-.676-.306-.823-.032zm-5.735.834c-.081.099-.104 2.464-.086 8.736l.025 8.601.27.095c.213.075.31.057.47-.088.199-.18.201-.265.201-8.674 0-7.589-.017-8.51-.156-8.649-.19-.19-.573-.202-.724-.02zm11.54.047c-.15.165-.165.906-.165 8.614 0 8.301.004 8.436.198 8.631.239.239.38.248.671.044l.22-.154v-8.502c0-7.598-.016-8.52-.155-8.659a.54.54 0 00-.77.026zM3.133 37.437c-.15.15-.198.33-.198.742v.545H2.34c-.54 0-.607.023-.71.248a.516.516 0 000 .495c.103.224.17.247.71.247h.596v.526c0 .625.16.885.545.885.384 0 .544-.26.544-.885v-.526h.596c.54 0 .607-.023.71-.247a.516.516 0 000-.495c-.103-.225-.17-.248-.71-.248h-.596v-.545c0-.566-.217-.94-.544-.94-.082 0-.238.089-.347.198z"/>
    <path d="M22.731 4.375c0-.457.04-.612.173-.69.497-.29.817 0 .817.742v.537h.502c.684 0 .885.124.885.545 0 .42-.201.544-.88.544h-.497l-.03.617c-.027.576-.048.624-.307.714-.453.159-.609-.015-.643-.722l-.03-.609h-.54c-.812 0-1.182-.446-.737-.89.15-.15.33-.199.743-.199h.544v-.589zM30.256 1.8c0-.456.039-.611.173-.69.497-.289.817.001.817.742v.538h.502c.684 0 .884.123.884.544 0 .42-.2.545-.88.545h-.496l-.03.617c-.027.575-.048.623-.307.714-.454.159-.609-.016-.643-.723l-.03-.608h-.54c-.812 0-1.182-.447-.737-.891.15-.15.33-.198.742-.198h.545V1.8z"/>
  </mask>
  <path fill-rule="evenodd" clip-rule="evenodd" d="M8.815 9.284l-3.818 6.28c-2.1 3.453-3.87 6.378-3.933 6.501-.08.156-.085.28-.013.413.135.254 3.154 2.087 3.436 2.087.27 0 .302-.045 2.457-3.564.918-1.498 1.718-2.78 1.78-2.848.084-.094.18.53.383 2.525.15 1.457.27 2.768.268 2.913-.002.145-.36 1.274-.795 2.509-.436 1.234-.792 2.343-.792 2.464 0 .448.063.457 3.379.457h3.141l.18-.23c.1-.127.27-.394.377-.595.108-.2.231-.353.274-.339.042.014.224.27.404.57l.327.544 6.367.052.162-.246c.155-.238.131-.329-.695-2.613l-.855-2.366.295-2.845c.163-1.564.31-2.86.328-2.877.017-.018.9 1.376 1.961 3.097s1.989 3.188 2.06 3.26a.513.513 0 00.316.132c.102 0 .912-.437 1.8-.97 1.318-.793 1.62-1.016 1.644-1.215.021-.176-1.06-2.034-3.886-6.678l-3.914-6.434-3.795-1.832-5.068.01-3.775 1.838zm23.813-.934c-.89 1.746-1.24 4.508-.838 6.635.2 1.063.8 2.83 1.046 3.083.13.134.255.168.443.12.455-.114.455-.378-.005-1.784-.777-2.377-.81-4.396-.108-6.493l.316-.94 2.623-.056.007 1.81c.004.996.038 1.883.075 1.971.126.303 2.74 3.057 2.956 3.116.118.032.28.02.36-.025.08-.046.762-.748 1.517-1.561l1.373-1.478.061-3.827h1.27c.896 0 1.297.036 1.366.124.162.204.53 1.362.678 2.137.161.839.184 2.813.043 3.592-.054.293-.462 1.635-.907 2.981l-.81 2.448-5.091.028c-4.91.026-5.097.034-5.232.22-.11.15-.14.61-.14 2.116v1.925l-.627 1.002c-1.345 2.15-2.137 3.704-3.036 5.953-1.64 4.103-2.55 8.81-2.46 12.732.032 1.408.04 1.454.32 1.859 2.252 3.246 15.693 4.05 21.332 1.276.772-.38 1.54-1.056 1.817-1.598.188-.367.207-.557.19-1.893-.051-4.092-.896-8.32-2.454-12.277-.62-1.574-1.926-4.276-2.22-4.592-.233-.25-.511-.27-.727-.055-.248.248-.184.525.349 1.528 2.481 4.663 3.93 10.263 3.986 15.403.014 1.362.01 1.4-.246 1.735-.306.404-.926.759-2.04 1.17-.729.268-.812.28-.857.128-.027-.093-.477-2.396-1.001-5.12-.524-2.722-.998-5.095-1.053-5.272-.184-.586-.897-.552-.957.046-.017.164.418 2.606.965 5.427.548 2.822.996 5.182.996 5.247 0 .208-2.518.58-4.728.699l-1.312.07v-5.79c0-5.485-.01-5.8-.181-5.956-.238-.214-.54-.207-.744.018-.149.164-.164.72-.164 5.955v5.774l-1.246-.07c-2.325-.128-4.794-.49-4.794-.702 0-.065.448-2.424.996-5.242.547-2.817.982-5.259.965-5.425-.06-.602-.773-.64-.957-.05-.055.176-.528 2.549-1.05 5.272-.523 2.723-.983 5.025-1.022 5.116-.063.148-.16.131-.948-.166-1.147-.435-1.862-.913-2.094-1.4-.169-.357-.173-.511-.066-2.362.363-6.249 2.048-11.615 5.255-16.733l.558-.891 5.18-.05c4.983-.047 5.185-.057 5.32-.241.11-.151.14-.623.14-2.202v-2.009l.843-2.533c.463-1.393.909-2.914.99-3.381.183-1.051.185-2.703.004-3.718-.16-.903-.666-2.464-.944-2.921l-.196-.322h-2.061c-1.471 0-2.095.034-2.18.119-.085.084-.12.72-.123 2.203l-.005 2.084-2.073 2.178-2.069-2.178-.003-2.084c-.003-1.485-.039-2.119-.123-2.203-.085-.085-.708-.12-2.176-.12h-2.058l-.214.42zm-14.532.477c.634.32.785.436.734.57-.423 1.107-3.67 8.223-3.726 8.166-.054-.056-3.243-7.1-3.718-8.213-.03-.07.284-.276.775-.512l.825-.395 4.311-.017.799.401zm-5.555 5.71c1.161 2.602 2.154 4.787 2.206 4.855.16.21.644.148.808-.102.081-.124 1.069-2.296 2.194-4.827 1.125-2.53 2.079-4.638 2.12-4.684.04-.045.246.007.457.115.347.178.724.758 4.034 6.2 2.008 3.302 3.634 6.018 3.614 6.035-.168.138-1.98 1.168-2.002 1.138-.016-.021-1-1.62-2.188-3.553-1.187-1.934-2.227-3.593-2.31-3.689-.206-.234-.68-.225-.81.016-.056.104-.28 1.924-.5 4.044l-.398 3.854.694 1.917c.382 1.054.694 1.975.694 2.046 0 .102-.478.129-2.305.129h-2.305l-.521-.881c-.768-1.298-.995-1.293-1.8.039l-.508.842h-2.32c-1.276 0-2.32-.03-2.32-.067 0-.036.312-.951.693-2.033.396-1.126.691-2.125.69-2.335-.011-1.008-.76-7.442-.885-7.592-.084-.1-.248-.15-.433-.132-.278.027-.453.28-2.546 3.672-1.235 2.003-2.27 3.667-2.301 3.697-.082.082-1.952-1.059-1.948-1.188.002-.062 1.62-2.763 3.596-6.003 3.187-5.227 3.635-5.916 3.977-6.108.212-.119.413-.198.448-.177.035.022 1.014 2.168 2.175 4.771zm36.411 5.778c-.134.079-.173.234-.173.69v.59h-.544c-.413 0-.593.048-.743.198-.445.444-.075.89.738.89h.54l.03.61c.033.706.189.88.642.722.26-.09.28-.139.307-.714l.03-.617h.496c.68 0 .88-.124.88-.545 0-.42-.2-.544-.884-.544h-.502v-.538c0-.74-.32-1.031-.817-.741zm-34.328.468c-.354.354-.384.68-.096 1.046.159.202.292.26.59.26.981 0 1.09-1.359.124-1.545-.266-.052-.367-.012-.618.24zm29.303 3.386H34.72v-2.871h9.209v2.871zm-29.172-.28c-.457.221-.556.859-.19 1.225.508.507 1.342.174 1.342-.535 0-.602-.597-.96-1.152-.69zm-.033 6.115c-.14.262-1.93 17.635-1.85 17.955.135.537.798.462.95-.107.054-.201.347-2.838.65-5.86.305-3.023.585-5.672.625-5.887.051-.279.251 1.35.7 5.694.344 3.346.666 6.159.715 6.25.18.342.695.328.883-.023.135-.252-1.657-17.678-1.85-17.99-.177-.287-.676-.306-.823-.032zm-5.735.834c-.081.099-.104 2.464-.086 8.736l.025 8.601.27.095c.213.075.31.057.47-.088.199-.18.201-.265.201-8.674 0-7.589-.017-8.51-.156-8.649-.19-.19-.573-.202-.724-.02zm11.54.047c-.15.165-.165.906-.165 8.614 0 8.301.004 8.436.198 8.631.239.239.38.248.671.044l.22-.154v-8.502c0-7.598-.016-8.52-.155-8.659a.54.54 0 00-.77.026zM3.133 37.437c-.15.15-.198.33-.198.742v.545H2.34c-.54 0-.607.023-.71.248a.516.516 0 000 .495c.103.224.17.247.71.247h.596v.526c0 .625.16.885.545.885.384 0 .544-.26.544-.885v-.526h.596c.54 0 .607-.023.71-.247a.516.516 0 000-.495c-.103-.225-.17-.248-.71-.248h-.596v-.545c0-.566-.217-.94-.544-.94-.082 0-.238.089-.347.198z" fill="#000"/>
  <path d="M22.731 4.375c0-.457.04-.612.173-.69.497-.29.817 0 .817.742v.537h.502c.684 0 .885.124.885.545 0 .42-.201.544-.88.544h-.497l-.03.617c-.027.576-.048.624-.307.714-.453.159-.609-.015-.643-.722l-.03-.609h-.54c-.812 0-1.182-.446-.737-.89.15-.15.33-.199.743-.199h.544v-.589zM30.256 1.8c0-.456.039-.611.173-.69.497-.289.817.001.817.742v.538h.502c.684 0 .884.123.884.544 0 .42-.2.545-.88.545h-.496l-.03.617c-.027.575-.048.623-.307.714-.454.159-.609-.016-.643-.723l-.03-.608h-.54c-.812 0-1.182-.447-.737-.891.15-.15.33-.198.742-.198h.545V1.8z" fill="#000"/>
  <path clip-rule="evenodd" d="M8.815 9.284l-3.818 6.28c-2.1 3.453-3.87 6.378-3.933 6.501-.08.156-.085.28-.013.413.135.254 3.154 2.087 3.436 2.087.27 0 .302-.045 2.457-3.564.918-1.498 1.718-2.78 1.78-2.848.084-.094.18.53.383 2.525.15 1.457.27 2.768.268 2.913-.002.145-.36 1.274-.795 2.509-.436 1.234-.792 2.343-.792 2.464 0 .448.063.457 3.379.457h3.141l.18-.23c.1-.127.27-.394.377-.595.108-.2.231-.353.274-.339.042.014.224.27.404.57l.327.544 6.367.052.162-.246c.155-.238.131-.329-.695-2.613l-.855-2.366.295-2.845c.163-1.564.31-2.86.328-2.877.017-.018.9 1.376 1.961 3.097s1.989 3.188 2.06 3.26a.513.513 0 00.316.132c.102 0 .912-.437 1.8-.97 1.318-.793 1.62-1.016 1.644-1.215.021-.176-1.06-2.034-3.886-6.678l-3.914-6.434-3.795-1.832-5.068.01-3.775 1.838zm23.813-.934c-.89 1.746-1.24 4.508-.838 6.635.2 1.063.8 2.83 1.046 3.083.13.134.255.168.443.12.455-.114.455-.378-.005-1.784-.777-2.377-.81-4.396-.108-6.493l.316-.94 2.623-.056.007 1.81c.004.996.038 1.883.075 1.971.126.303 2.74 3.057 2.956 3.116.118.032.28.02.36-.025.08-.046.762-.748 1.517-1.561l1.373-1.478.061-3.827h1.27c.896 0 1.297.036 1.366.124.162.204.53 1.362.678 2.137.161.839.184 2.813.043 3.592-.054.293-.462 1.635-.907 2.981l-.81 2.448-5.091.028c-4.91.026-5.097.034-5.232.22-.11.15-.14.61-.14 2.116v1.925l-.627 1.002c-1.345 2.15-2.137 3.704-3.036 5.953-1.64 4.103-2.55 8.81-2.46 12.732.032 1.408.04 1.454.32 1.859 2.252 3.246 15.693 4.05 21.332 1.276.772-.38 1.54-1.056 1.817-1.598.188-.367.207-.557.19-1.893-.051-4.092-.896-8.32-2.454-12.277-.62-1.574-1.926-4.276-2.22-4.592-.233-.25-.511-.27-.727-.055-.248.248-.184.525.349 1.528 2.481 4.663 3.93 10.263 3.986 15.403.014 1.362.01 1.4-.246 1.735-.306.404-.926.759-2.04 1.17-.729.268-.812.28-.857.128-.027-.093-.477-2.396-1.001-5.12-.524-2.722-.998-5.095-1.053-5.272-.184-.586-.897-.552-.957.046-.017.164.418 2.606.965 5.427.548 2.822.996 5.182.996 5.247 0 .208-2.518.58-4.728.699l-1.312.07v-5.79c0-5.485-.01-5.8-.181-5.956-.238-.214-.54-.207-.744.018-.149.164-.164.72-.164 5.955v5.774l-1.246-.07c-2.325-.128-4.794-.49-4.794-.702 0-.065.448-2.424.996-5.242.547-2.817.982-5.259.965-5.425-.06-.602-.773-.64-.957-.05-.055.176-.528 2.549-1.05 5.272-.523 2.723-.983 5.025-1.022 5.116-.063.148-.16.131-.948-.166-1.147-.435-1.862-.913-2.094-1.4-.169-.357-.173-.511-.066-2.362.363-6.249 2.048-11.615 5.255-16.733l.558-.891 5.18-.05c4.983-.047 5.185-.057 5.32-.241.11-.151.14-.623.14-2.202v-2.009l.843-2.533c.463-1.393.909-2.914.99-3.381.183-1.051.185-2.703.004-3.718-.16-.903-.666-2.464-.944-2.921l-.196-.322h-2.061c-1.471 0-2.095.034-2.18.119-.085.084-.12.72-.123 2.203l-.005 2.084-2.073 2.178-2.069-2.178-.003-2.084c-.003-1.485-.039-2.119-.123-2.203-.085-.085-.708-.12-2.176-.12h-2.058l-.214.42zm-14.532.477c.634.32.785.436.734.57-.423 1.107-3.67 8.223-3.726 8.166-.054-.056-3.243-7.1-3.718-8.213-.03-.07.284-.276.775-.512l.825-.395 4.311-.017.799.401zm-5.555 5.71c1.161 2.602 2.154 4.787 2.206 4.855.16.21.644.148.808-.102.081-.124 1.069-2.296 2.194-4.827 1.125-2.53 2.079-4.638 2.12-4.684.04-.045.246.007.457.115.347.178.724.758 4.034 6.2 2.008 3.302 3.634 6.018 3.614 6.035-.168.138-1.98 1.168-2.002 1.138-.016-.021-1-1.62-2.188-3.553-1.187-1.934-2.227-3.593-2.31-3.689-.206-.234-.68-.225-.81.016-.056.104-.28 1.924-.5 4.044l-.398 3.854.694 1.917c.382 1.054.694 1.975.694 2.046 0 .102-.478.129-2.305.129h-2.305l-.521-.881c-.768-1.298-.995-1.293-1.8.039l-.508.842h-2.32c-1.276 0-2.32-.03-2.32-.067 0-.036.312-.951.693-2.033.396-1.126.691-2.125.69-2.335-.011-1.008-.76-7.442-.885-7.592-.084-.1-.248-.15-.433-.132-.278.027-.453.28-2.546 3.672-1.235 2.003-2.27 3.667-2.301 3.697-.082.082-1.952-1.059-1.948-1.188.002-.062 1.62-2.763 3.596-6.003 3.187-5.227 3.635-5.916 3.977-6.108.212-.119.413-.198.448-.177.035.022 1.014 2.168 2.175 4.771zm36.411 5.778c-.134.079-.173.234-.173.69v.59h-.544c-.413 0-.593.048-.743.198-.445.444-.075.89.738.89h.54l.03.61c.033.706.189.88.642.722.26-.09.28-.139.307-.714l.03-.617h.496c.68 0 .88-.124.88-.545 0-.42-.2-.544-.884-.544h-.502v-.538c0-.74-.32-1.031-.817-.741zm-34.328.468c-.354.354-.384.68-.096 1.046.159.202.292.26.59.26.981 0 1.09-1.359.124-1.545-.266-.052-.367-.012-.618.24zm29.303 3.386H34.72v-2.871h9.209v2.871zm-29.172-.28c-.457.221-.556.859-.19 1.225.508.507 1.342.174 1.342-.535 0-.602-.597-.96-1.152-.69zm-.033 6.115c-.14.262-1.93 17.635-1.85 17.955.135.537.798.462.95-.107.054-.201.347-2.838.65-5.86.305-3.023.585-5.672.625-5.887.051-.279.251 1.35.7 5.694.344 3.346.666 6.159.715 6.25.18.342.695.328.883-.023.135-.252-1.657-17.678-1.85-17.99-.177-.287-.676-.306-.823-.032zm-5.735.834c-.081.099-.104 2.464-.086 8.736l.025 8.601.27.095c.213.075.31.057.47-.088.199-.18.201-.265.201-8.674 0-7.589-.017-8.51-.156-8.649-.19-.19-.573-.202-.724-.02zm11.54.047c-.15.165-.165.906-.165 8.614 0 8.301.004 8.436.198 8.631.239.239.38.248.671.044l.22-.154v-8.502c0-7.598-.016-8.52-.155-8.659a.54.54 0 00-.77.026zM3.133 37.437c-.15.15-.198.33-.198.742v.545H2.34c-.54 0-.607.023-.71.248a.516.516 0 000 .495c.103.224.17.247.71.247h.596v.526c0 .625.16.885.545.885.384 0 .544-.26.544-.885v-.526h.596c.54 0 .607-.023.71-.247a.516.516 0 000-.495c-.103-.225-.17-.248-.71-.248h-.596v-.545c0-.566-.217-.94-.544-.94-.082 0-.238.089-.347.198z" stroke="#000" stroke-width=".582" mask="url(#ZfD5i6yW6Ufa)"/>
  <path d="M22.731 4.375c0-.457.04-.612.173-.69.497-.29.817 0 .817.742v.537h.502c.684 0 .885.124.885.545 0 .42-.201.544-.88.544h-.497l-.03.617c-.027.576-.048.624-.307.714-.453.159-.609-.015-.643-.722l-.03-.609h-.54c-.812 0-1.182-.446-.737-.89.15-.15.33-.199.743-.199h.544v-.589zM30.256 1.8c0-.456.039-.611.173-.69.497-.289.817.001.817.742v.538h.502c.684 0 .884.123.884.544 0 .42-.2.545-.88.545h-.496l-.03.617c-.027.575-.048.623-.307.714-.454.159-.609-.016-.643-.723l-.03-.608h-.54c-.812 0-1.182-.447-.737-.891.15-.15.33-.198.742-.198h.545V1.8z" stroke="#000" stroke-width=".582" mask="url(#ZfD5i6yW6Ufa)"/>
</svg>
