<svg xmlns="http://www.w3.org/2000/svg" fill="none" viewBox="0 0 44 36">
  <mask id="hXKRWepXOa" maskUnits="userSpaceOnUse" x="0" y="0" width="44" height="36" fill="#000">
    <path fill="#fff" d="M0 0h44v36H0z"/>
    <path fill-rule="evenodd" clip-rule="evenodd" d="M7.63 6.9l-3.239 4.472a621.546 621.546 0 00-3.337 4.63c-.068.112-.072.2-.011.295.115.18 2.676 1.486 2.915 1.486.23 0 .257-.032 2.085-2.539.778-1.066 1.458-1.979 1.51-2.028.072-.066.152.378.325 1.799.127 1.037.23 1.971.228 2.075-.002.103-.306.907-.675 1.786-.37.88-.672 1.669-.672 1.755 0 .32.054.325 2.867.325h2.665l.153-.163c.084-.09.228-.281.32-.424.09-.143.195-.252.231-.241.037.01.19.192.343.405l.277.388 5.403.037.137-.175c.132-.17.111-.235-.59-1.861l-.725-1.686.25-2.026c.138-1.114.263-2.036.278-2.049.015-.012.764.98 1.665 2.206.9 1.226 1.686 2.27 1.747 2.322a.482.482 0 00.268.094c.087 0 .774-.311 1.527-.692 1.119-.564 1.375-.723 1.395-.864.018-.125-.9-1.449-3.296-4.756l-3.322-4.583-3.219-1.304-4.3.006L7.63 6.9zm20.204-.665c-.756 1.243-1.052 3.21-.712 4.725.17.757.68 2.016.888 2.196.11.095.216.12.375.086.387-.082.386-.27-.004-1.272-.66-1.693-.688-3.13-.091-4.623l.268-.67 2.226-.04.006 1.29c.003.708.031 1.34.063 1.403.107.216 2.324 2.177 2.508 2.219.1.023.238.015.305-.018.068-.033.647-.533 1.287-1.112l1.165-1.052.052-2.726h1.077c.76 0 1.1.026 1.16.088.137.146.448.97.575 1.523.136.597.156 2.003.036 2.558-.046.209-.392 1.164-.77 2.123l-.687 1.744-4.32.02c-4.164.018-4.323.024-4.438.155-.094.107-.12.436-.12 1.508v1.37l-.531.714c-1.141 1.532-1.813 2.639-2.576 4.24-1.391 2.922-2.163 6.275-2.087 9.068.028 1.003.034 1.036.272 1.324 1.911 2.312 13.314 2.884 18.098.908.655-.27 1.307-.751 1.542-1.138.159-.26.175-.396.16-1.347-.042-2.915-.76-5.927-2.08-8.745-.526-1.12-1.635-3.044-1.885-3.27-.197-.177-.433-.192-.616-.039-.21.177-.157.375.296 1.088 2.105 3.322 3.334 7.31 3.381 10.97.013.97.008.998-.208 1.236-.26.288-.786.54-1.73.833-.62.191-.69.2-.728.092-.023-.066-.405-1.707-.85-3.646-.444-1.94-.846-3.63-.893-3.755-.155-.418-.76-.394-.812.032-.014.117.355 1.856.82 3.865.464 2.01.844 3.691.844 3.737 0 .148-2.136.414-4.011.498l-1.113.05V30.32c0-3.906-.008-4.13-.154-4.241-.201-.153-.458-.148-.631.012-.126.117-.14.514-.14 4.241v4.113l-1.056-.05c-1.973-.092-4.068-.35-4.068-.5 0-.047.38-1.727.845-3.733.465-2.007.834-3.746.82-3.864-.052-.43-.656-.456-.813-.036-.047.126-.448 1.815-.891 3.755-.444 1.939-.833 3.578-.866 3.643-.054.106-.137.094-.805-.118-.973-.31-1.58-.65-1.776-.998-.144-.253-.147-.363-.056-1.681.307-4.45 1.737-8.272 4.458-11.918l.474-.634 4.394-.035c4.227-.034 4.4-.04 4.514-.172.093-.108.119-.444.119-1.568v-1.431l.714-1.804c.393-.992.771-2.076.84-2.408.156-.749.158-1.925.004-2.648-.136-.643-.565-1.755-.801-2.08l-.167-.23h-1.748c-1.248 0-1.778.024-1.85.085-.071.06-.101.512-.104 1.569l-.004 1.484-1.759 1.552-1.755-1.552-.003-1.484c-.002-1.057-.032-1.509-.104-1.57-.072-.06-.6-.084-1.846-.084h-1.746l-.181.299zm-12.33.34c.539.227.666.31.623.405-.359.789-3.114 5.856-3.161 5.816-.046-.04-2.752-5.057-3.154-5.85-.025-.049.24-.196.657-.364l.7-.281 3.658-.012.677.286zm-4.713 4.065c.986 1.854 1.828 3.41 1.872 3.458.136.15.546.106.686-.072.069-.089.906-1.636 1.86-3.438.955-1.802 1.765-3.303 1.8-3.335.034-.033.208.004.387.081.295.127.615.54 3.423 4.416 1.703 2.352 3.083 4.286 3.066 4.298-.143.098-1.68.832-1.699.81-.014-.015-.849-1.154-1.856-2.53-1.007-1.377-1.89-2.56-1.96-2.627-.174-.167-.578-.16-.687.011-.047.075-.238 1.37-.424 2.88l-.338 2.745.59 1.366c.323.75.588 1.406.588 1.456 0 .073-.406.092-1.956.092h-1.955l-.443-.627c-.651-.924-.844-.92-1.526.028l-.431.6H9.819c-1.082 0-1.968-.022-1.968-.048 0-.026.264-.678.588-1.448.336-.802.586-1.514.585-1.663-.01-.718-.645-5.3-.75-5.407-.072-.072-.21-.108-.368-.094-.236.02-.385.2-2.16 2.615a195.069 195.069 0 01-1.952 2.633c-.07.058-1.656-.754-1.653-.846.002-.044 1.374-1.968 3.05-4.275 2.704-3.723 3.085-4.214 3.375-4.35.18-.085.35-.142.38-.126.03.015.86 1.544 1.845 3.397zm30.892 4.116c-.114.056-.147.167-.147.492v.42h-.462c-.35 0-.503.034-.63.14-.377.317-.064.635.626.635h.458l.025.434c.03.503.16.627.546.514.22-.064.237-.099.26-.508l.025-.44h.422c.576 0 .746-.088.746-.388 0-.3-.17-.387-.75-.387h-.426v-.383c0-.528-.271-.735-.693-.529zm-29.125.334c-.3.251-.325.484-.08.744.134.144.247.186.5.186.832 0 .925-.968.105-1.101-.225-.037-.311-.009-.525.17zM37.42 17.5h-7.812v-2.044h7.812V17.5zm-24.75-.199c-.388.158-.472.612-.16.873.43.361 1.137.124 1.137-.381 0-.428-.506-.683-.978-.492zm-.028 4.355c-.119.187-1.637 12.56-1.57 12.788.115.382.677.329.806-.076.046-.143.294-2.022.552-4.174.258-2.153.496-4.039.53-4.192.043-.199.213.961.593 4.055.293 2.383.566 4.386.607 4.451.153.244.59.234.75-.017.114-.179-1.406-12.59-1.57-12.812-.15-.204-.573-.218-.698-.023zm-4.865.595c-.07.07-.09 1.754-.074 6.221l.022 6.126.228.067c.181.054.264.04.4-.062.168-.128.17-.189.17-6.178 0-5.404-.014-6.06-.132-6.16-.162-.135-.487-.143-.614-.014zm9.79.033c-.128.118-.14.645-.14 6.135 0 5.912.003 6.008.168 6.147.202.17.323.176.57.031l.186-.11v-6.055c0-5.41-.014-6.067-.132-6.166a.521.521 0 00-.653.018zM2.81 26.95c-.128.107-.168.235-.168.53v.387h-.506c-.458 0-.515.017-.602.176-.071.132-.071.22 0 .353.087.16.144.176.602.176h.506v.374c0 .446.135.63.462.63.326 0 .462-.184.462-.63v-.374h.505c.458 0 .515-.017.602-.176.072-.132.072-.22 0-.353-.087-.16-.144-.176-.602-.176h-.505v-.388c0-.403-.184-.67-.462-.67-.07 0-.202.064-.294.141z"/>
    <path d="M19.437 3.404c0-.326.033-.436.147-.492.422-.206.693 0 .693.528v.383h.425c.58 0 .75.088.75.388 0 .3-.17.388-.746.388h-.421l-.025.44c-.024.41-.041.443-.26.508-.386.113-.517-.011-.546-.515l-.025-.433h-.458c-.69 0-1.003-.318-.626-.635.127-.107.28-.14.63-.14h.462v-.42zM25.82 1.57c0-.325.034-.436.148-.491.422-.206.693 0 .693.528v.383h.425c.58 0 .751.088.751.388 0 .299-.17.387-.747.387h-.421l-.025.44c-.023.41-.04.444-.26.508-.385.113-.517-.01-.546-.514l-.025-.434h-.458c-.69 0-1.003-.318-.626-.634.127-.107.28-.141.63-.141h.462v-.42z"/>
  </mask>
  <path fill-rule="evenodd" clip-rule="evenodd" d="M7.63 6.9l-3.239 4.472a621.546 621.546 0 00-3.337 4.63c-.068.112-.072.2-.011.295.115.18 2.676 1.486 2.915 1.486.23 0 .257-.032 2.085-2.539.778-1.066 1.458-1.979 1.51-2.028.072-.066.152.378.325 1.799.127 1.037.23 1.971.228 2.075-.002.103-.306.907-.675 1.786-.37.88-.672 1.669-.672 1.755 0 .32.054.325 2.867.325h2.665l.153-.163c.084-.09.228-.281.32-.424.09-.143.195-.252.231-.241.037.01.19.192.343.405l.277.388 5.403.037.137-.175c.132-.17.111-.235-.59-1.861l-.725-1.686.25-2.026c.138-1.114.263-2.036.278-2.049.015-.012.764.98 1.665 2.206.9 1.226 1.686 2.27 1.747 2.322a.482.482 0 00.268.094c.087 0 .774-.311 1.527-.692 1.119-.564 1.375-.723 1.395-.864.018-.125-.9-1.449-3.296-4.756l-3.322-4.583-3.219-1.304-4.3.006L7.63 6.9zm20.204-.665c-.756 1.243-1.052 3.21-.712 4.725.17.757.68 2.016.888 2.196.11.095.216.12.375.086.387-.082.386-.27-.004-1.272-.66-1.693-.688-3.13-.091-4.623l.268-.67 2.226-.04.006 1.29c.003.708.031 1.34.063 1.403.107.216 2.324 2.177 2.508 2.219.1.023.238.015.305-.018.068-.033.647-.533 1.287-1.112l1.165-1.052.052-2.726h1.077c.76 0 1.1.026 1.16.088.137.146.448.97.575 1.523.136.597.156 2.003.036 2.558-.046.209-.392 1.164-.77 2.123l-.687 1.744-4.32.02c-4.164.018-4.323.024-4.438.155-.094.107-.12.436-.12 1.508v1.37l-.531.714c-1.141 1.532-1.813 2.639-2.576 4.24-1.391 2.922-2.163 6.275-2.087 9.068.028 1.003.034 1.036.272 1.324 1.911 2.312 13.314 2.884 18.098.908.655-.27 1.307-.751 1.542-1.138.159-.26.175-.396.16-1.347-.042-2.915-.76-5.927-2.08-8.745-.526-1.12-1.635-3.044-1.885-3.27-.197-.177-.433-.192-.616-.039-.21.177-.157.375.296 1.088 2.105 3.322 3.334 7.31 3.381 10.97.013.97.008.998-.208 1.236-.26.288-.786.54-1.73.833-.62.191-.69.2-.728.092-.023-.066-.405-1.707-.85-3.646-.444-1.94-.846-3.63-.893-3.755-.155-.418-.76-.394-.812.032-.014.117.355 1.856.82 3.865.464 2.01.844 3.691.844 3.737 0 .148-2.136.414-4.011.498l-1.113.05V30.32c0-3.906-.008-4.13-.154-4.241-.201-.153-.458-.148-.631.012-.126.117-.14.514-.14 4.241v4.113l-1.056-.05c-1.973-.092-4.068-.35-4.068-.5 0-.047.38-1.727.845-3.733.465-2.007.834-3.746.82-3.864-.052-.43-.656-.456-.813-.036-.047.126-.448 1.815-.891 3.755-.444 1.939-.833 3.578-.866 3.643-.054.106-.137.094-.805-.118-.973-.31-1.58-.65-1.776-.998-.144-.253-.147-.363-.056-1.681.307-4.45 1.737-8.272 4.458-11.918l.474-.634 4.394-.035c4.227-.034 4.4-.04 4.514-.172.093-.108.119-.444.119-1.568v-1.431l.714-1.804c.393-.992.771-2.076.84-2.408.156-.749.158-1.925.004-2.648-.136-.643-.565-1.755-.801-2.08l-.167-.23h-1.748c-1.248 0-1.778.024-1.85.085-.071.06-.101.512-.104 1.569l-.004 1.484-1.759 1.552-1.755-1.552-.003-1.484c-.002-1.057-.032-1.509-.104-1.57-.072-.06-.6-.084-1.846-.084h-1.746l-.181.299zm-12.33.34c.539.227.666.31.623.405-.359.789-3.114 5.856-3.161 5.816-.046-.04-2.752-5.057-3.154-5.85-.025-.049.24-.196.657-.364l.7-.281 3.658-.012.677.286zm-4.713 4.065c.986 1.854 1.828 3.41 1.872 3.458.136.15.546.106.686-.072.069-.089.906-1.636 1.86-3.438.955-1.802 1.765-3.303 1.8-3.335.034-.033.208.004.387.081.295.127.615.54 3.423 4.416 1.703 2.352 3.083 4.286 3.066 4.298-.143.098-1.68.832-1.699.81-.014-.015-.849-1.154-1.856-2.53-1.007-1.377-1.89-2.56-1.96-2.627-.174-.167-.578-.16-.687.011-.047.075-.238 1.37-.424 2.88l-.338 2.745.59 1.366c.323.75.588 1.406.588 1.456 0 .073-.406.092-1.956.092h-1.955l-.443-.627c-.651-.924-.844-.92-1.526.028l-.431.6H9.819c-1.082 0-1.968-.022-1.968-.048 0-.026.264-.678.588-1.448.336-.802.586-1.514.585-1.663-.01-.718-.645-5.3-.75-5.407-.072-.072-.21-.108-.368-.094-.236.02-.385.2-2.16 2.615a195.069 195.069 0 01-1.952 2.633c-.07.058-1.656-.754-1.653-.846.002-.044 1.374-1.968 3.05-4.275 2.704-3.723 3.085-4.214 3.375-4.35.18-.085.35-.142.38-.126.03.015.86 1.544 1.845 3.397zm30.892 4.116c-.114.056-.147.167-.147.492v.42h-.462c-.35 0-.503.034-.63.14-.377.317-.064.635.626.635h.458l.025.434c.03.503.16.627.546.514.22-.064.237-.099.26-.508l.025-.44h.422c.576 0 .746-.088.746-.388 0-.3-.17-.387-.75-.387h-.426v-.383c0-.528-.271-.735-.693-.529zm-29.125.334c-.3.251-.325.484-.08.744.134.144.247.186.5.186.832 0 .925-.968.105-1.101-.225-.037-.311-.009-.525.17zM37.42 17.5h-7.812v-2.044h7.812V17.5zm-24.75-.199c-.388.158-.472.612-.16.873.43.361 1.137.124 1.137-.381 0-.428-.506-.683-.978-.492zm-.028 4.355c-.119.187-1.637 12.56-1.57 12.788.115.382.677.329.806-.076.046-.143.294-2.022.552-4.174.258-2.153.496-4.039.53-4.192.043-.199.213.961.593 4.055.293 2.383.566 4.386.607 4.451.153.244.59.234.75-.017.114-.179-1.406-12.59-1.57-12.812-.15-.204-.573-.218-.698-.023zm-4.865.595c-.07.07-.09 1.754-.074 6.221l.022 6.126.228.067c.181.054.264.04.4-.062.168-.128.17-.189.17-6.178 0-5.404-.014-6.06-.132-6.16-.162-.135-.487-.143-.614-.014zm9.79.033c-.128.118-.14.645-.14 6.135 0 5.912.003 6.008.168 6.147.202.17.323.176.57.031l.186-.11v-6.055c0-5.41-.014-6.067-.132-6.166a.521.521 0 00-.653.018zM2.81 26.95c-.128.107-.168.235-.168.53v.387h-.506c-.458 0-.515.017-.602.176-.071.132-.071.22 0 .353.087.16.144.176.602.176h.506v.374c0 .446.135.63.462.63.326 0 .462-.184.462-.63v-.374h.505c.458 0 .515-.017.602-.176.072-.132.072-.22 0-.353-.087-.16-.144-.176-.602-.176h-.505v-.388c0-.403-.184-.67-.462-.67-.07 0-.202.064-.294.141z" fill="#000"/>
  <path d="M19.437 3.404c0-.326.033-.436.147-.492.422-.206.693 0 .693.528v.383h.425c.58 0 .75.088.75.388 0 .3-.17.388-.746.388h-.421l-.025.44c-.024.41-.041.443-.26.508-.386.113-.517-.011-.546-.515l-.025-.433h-.458c-.69 0-1.003-.318-.626-.635.127-.107.28-.14.63-.14h.462v-.42zM25.82 1.57c0-.325.034-.436.148-.491.422-.206.693 0 .693.528v.383h.425c.58 0 .751.088.751.388 0 .299-.17.387-.747.387h-.421l-.025.44c-.023.41-.04.444-.26.508-.385.113-.517-.01-.546-.514l-.025-.434h-.458c-.69 0-1.003-.318-.626-.634.127-.107.28-.141.63-.141h.462v-.42z" fill="#000"/>
  <path clip-rule="evenodd" d="M7.63 6.9l-3.239 4.472a621.546 621.546 0 00-3.337 4.63c-.068.112-.072.2-.011.295.115.18 2.676 1.486 2.915 1.486.23 0 .257-.032 2.085-2.539.778-1.066 1.458-1.979 1.51-2.028.072-.066.152.378.325 1.799.127 1.037.23 1.971.228 2.075-.002.103-.306.907-.675 1.786-.37.88-.672 1.669-.672 1.755 0 .32.054.325 2.867.325h2.665l.153-.163c.084-.09.228-.281.32-.424.09-.143.195-.252.231-.241.037.01.19.192.343.405l.277.388 5.403.037.137-.175c.132-.17.111-.235-.59-1.861l-.725-1.686.25-2.026c.138-1.114.263-2.036.278-2.049.015-.012.764.98 1.665 2.206.9 1.226 1.686 2.27 1.747 2.322a.482.482 0 00.268.094c.087 0 .774-.311 1.527-.692 1.119-.564 1.375-.723 1.395-.864.018-.125-.9-1.449-3.296-4.756l-3.322-4.583-3.219-1.304-4.3.006L7.63 6.9zm20.204-.665c-.756 1.243-1.052 3.21-.712 4.725.17.757.68 2.016.888 2.196.11.095.216.12.375.086.387-.082.386-.27-.004-1.272-.66-1.693-.688-3.13-.091-4.623l.268-.67 2.226-.04.006 1.29c.003.708.031 1.34.063 1.403.107.216 2.324 2.177 2.508 2.219.1.023.238.015.305-.018.068-.033.647-.533 1.287-1.112l1.165-1.052.052-2.726h1.077c.76 0 1.1.026 1.16.088.137.146.448.97.575 1.523.136.597.156 2.003.036 2.558-.046.209-.392 1.164-.77 2.123l-.687 1.744-4.32.02c-4.164.018-4.323.024-4.438.155-.094.107-.12.436-.12 1.508v1.37l-.531.714c-1.141 1.532-1.813 2.639-2.576 4.24-1.391 2.922-2.163 6.275-2.087 9.068.028 1.003.034 1.036.272 1.324 1.911 2.312 13.314 2.884 18.098.908.655-.27 1.307-.751 1.542-1.138.159-.26.175-.396.16-1.347-.042-2.915-.76-5.927-2.08-8.745-.526-1.12-1.635-3.044-1.885-3.27-.197-.177-.433-.192-.616-.039-.21.177-.157.375.296 1.088 2.105 3.322 3.334 7.31 3.381 10.97.013.97.008.998-.208 1.236-.26.288-.786.54-1.73.833-.62.191-.69.2-.728.092-.023-.066-.405-1.707-.85-3.646-.444-1.94-.846-3.63-.893-3.755-.155-.418-.76-.394-.812.032-.014.117.355 1.856.82 3.865.464 2.01.844 3.691.844 3.737 0 .148-2.136.414-4.011.498l-1.113.05V30.32c0-3.906-.008-4.13-.154-4.241-.201-.153-.458-.148-.631.012-.126.117-.14.514-.14 4.241v4.113l-1.056-.05c-1.973-.092-4.068-.35-4.068-.5 0-.047.38-1.727.845-3.733.465-2.007.834-3.746.82-3.864-.052-.43-.656-.456-.813-.036-.047.126-.448 1.815-.891 3.755-.444 1.939-.833 3.578-.866 3.643-.054.106-.137.094-.805-.118-.973-.31-1.58-.65-1.776-.998-.144-.253-.147-.363-.056-1.681.307-4.45 1.737-8.272 4.458-11.918l.474-.634 4.394-.035c4.227-.034 4.4-.04 4.514-.172.093-.108.119-.444.119-1.568v-1.431l.714-1.804c.393-.992.771-2.076.84-2.408.156-.749.158-1.925.004-2.648-.136-.643-.565-1.755-.801-2.08l-.167-.23h-1.748c-1.248 0-1.778.024-1.85.085-.071.06-.101.512-.104 1.569l-.004 1.484-1.759 1.552-1.755-1.552-.003-1.484c-.002-1.057-.032-1.509-.104-1.57-.072-.06-.6-.084-1.846-.084h-1.746l-.181.299zm-12.33.34c.539.227.666.31.623.405-.359.789-3.114 5.856-3.161 5.816-.046-.04-2.752-5.057-3.154-5.85-.025-.049.24-.196.657-.364l.7-.281 3.658-.012.677.286zm-4.713 4.065c.986 1.854 1.828 3.41 1.872 3.458.136.15.546.106.686-.072.069-.089.906-1.636 1.86-3.438.955-1.802 1.765-3.303 1.8-3.335.034-.033.208.004.387.081.295.127.615.54 3.423 4.416 1.703 2.352 3.083 4.286 3.066 4.298-.143.098-1.68.832-1.699.81-.014-.015-.849-1.154-1.856-2.53-1.007-1.377-1.89-2.56-1.96-2.627-.174-.167-.578-.16-.687.011-.047.075-.238 1.37-.424 2.88l-.338 2.745.59 1.366c.323.75.588 1.406.588 1.456 0 .073-.406.092-1.956.092h-1.955l-.443-.627c-.651-.924-.844-.92-1.526.028l-.431.6H9.819c-1.082 0-1.968-.022-1.968-.048 0-.026.264-.678.588-1.448.336-.802.586-1.514.585-1.663-.01-.718-.645-5.3-.75-5.407-.072-.072-.21-.108-.368-.094-.236.02-.385.2-2.16 2.615a195.069 195.069 0 01-1.952 2.633c-.07.058-1.656-.754-1.653-.846.002-.044 1.374-1.968 3.05-4.275 2.704-3.723 3.085-4.214 3.375-4.35.18-.085.35-.142.38-.126.03.015.86 1.544 1.845 3.397zm30.892 4.116c-.114.056-.147.167-.147.492v.42h-.462c-.35 0-.503.034-.63.14-.377.317-.064.635.626.635h.458l.025.434c.03.503.16.627.546.514.22-.064.237-.099.26-.508l.025-.44h.422c.576 0 .746-.088.746-.388 0-.3-.17-.387-.75-.387h-.426v-.383c0-.528-.271-.735-.693-.529zm-29.125.334c-.3.251-.325.484-.08.744.134.144.247.186.5.186.832 0 .925-.968.105-1.101-.225-.037-.311-.009-.525.17zM37.42 17.5h-7.812v-2.044h7.812V17.5zm-24.75-.199c-.388.158-.472.612-.16.873.43.361 1.137.124 1.137-.381 0-.428-.506-.683-.978-.492zm-.028 4.355c-.119.187-1.637 12.56-1.57 12.788.115.382.677.329.806-.076.046-.143.294-2.022.552-4.174.258-2.153.496-4.039.53-4.192.043-.199.213.961.593 4.055.293 2.383.566 4.386.607 4.451.153.244.59.234.75-.017.114-.179-1.406-12.59-1.57-12.812-.15-.204-.573-.218-.698-.023zm-4.865.595c-.07.07-.09 1.754-.074 6.221l.022 6.126.228.067c.181.054.264.04.4-.062.168-.128.17-.189.17-6.178 0-5.404-.014-6.06-.132-6.16-.162-.135-.487-.143-.614-.014zm9.79.033c-.128.118-.14.645-.14 6.135 0 5.912.003 6.008.168 6.147.202.17.323.176.57.031l.186-.11v-6.055c0-5.41-.014-6.067-.132-6.166a.521.521 0 00-.653.018zM2.81 26.95c-.128.107-.168.235-.168.53v.387h-.506c-.458 0-.515.017-.602.176-.071.132-.071.22 0 .353.087.16.144.176.602.176h.506v.374c0 .446.135.63.462.63.326 0 .462-.184.462-.63v-.374h.505c.458 0 .515-.017.602-.176.072-.132.072-.22 0-.353-.087-.16-.144-.176-.602-.176h-.505v-.388c0-.403-.184-.67-.462-.67-.07 0-.202.064-.294.141z" stroke="#000" stroke-width=".539" mask="url(#hXKRWepXOa)"/>
  <path d="M19.437 3.404c0-.326.033-.436.147-.492.422-.206.693 0 .693.528v.383h.425c.58 0 .75.088.75.388 0 .3-.17.388-.746.388h-.421l-.025.44c-.024.41-.041.443-.26.508-.386.113-.517-.011-.546-.515l-.025-.433h-.458c-.69 0-1.003-.318-.626-.635.127-.107.28-.14.63-.14h.462v-.42zM25.82 1.57c0-.325.034-.436.148-.491.422-.206.693 0 .693.528v.383h.425c.58 0 .751.088.751.388 0 .299-.17.387-.747.387h-.421l-.025.44c-.023.41-.04.444-.26.508-.385.113-.517-.01-.546-.514l-.025-.434h-.458c-.69 0-1.003-.318-.626-.634.127-.107.28-.141.63-.141h.462v-.42z" stroke="#000" stroke-width=".539" mask="url(#hXKRWepXOa)"/>
</svg>
